<?xml version="1.0" encoding="iso-8859-1"?><!DOCTYPE svg PUBLIC "-//W3C//DTD SVG 1.1//EN" "http://www.w3.org/Graphics/SVG/1.1/DTD/svg11.dtd"><svg xmlns="http://www.w3.org/2000/svg" xmlns:xlink="http://www.w3.org/1999/xlink"><symbol viewBox="0 0 339.177 339.177" id="cancel" xmlns="http://www.w3.org/2000/svg"><path d="M247.244 169.59l83.938-83.938c5.332-5.327 7.994-11.798 7.994-19.414 0-7.614-2.669-14.084-7.994-19.414L292.355 7.993C287.026 2.665 280.556 0 272.944 0c-7.617 0-14.085 2.665-19.417 7.993L169.59 91.931 85.651 7.993C80.325 2.665 73.854 0 66.237 0c-7.611 0-14.083 2.665-19.414 7.993L7.994 46.824C2.667 52.15 0 58.624 0 66.238c0 7.616 2.664 14.084 7.994 19.414l83.937 83.938-83.937 83.938C2.667 258.859 0 265.327 0 272.945c0 7.61 2.664 14.082 7.994 19.41l38.83 38.828c5.33 5.332 11.803 7.994 19.414 7.994 7.616 0 14.084-2.669 19.414-7.994l83.939-83.938 83.944 83.938c5.328 5.332 11.793 7.994 19.417 7.994 7.611 0 14.082-2.669 19.411-7.994l38.82-38.828c5.332-5.324 7.994-11.8 7.994-19.41 0-7.618-2.662-14.086-7.994-19.417l-83.939-83.938z"/></symbol><symbol viewBox="0 0 26 26" id="check" xmlns="http://www.w3.org/2000/svg"><path d="M.3 14c-.2-.2-.3-.5-.3-.7s.1-.5.3-.7l1.4-1.4c.4-.4 1-.4 1.4 0l.1.1 5.5 5.9c.2.2.5.2.7 0L22.8 3.3h.1c.4-.4 1-.4 1.4 0l1.4 1.4c.4.4.4 1 0 1.4l-16 16.6c-.2.2-.4.3-.7.3-.3 0-.5-.1-.7-.3L.5 14.3.3 14z"/></symbol><symbol viewBox="0 0 511.626 511.627" id="display-type-1" xmlns="http://www.w3.org/2000/svg"><path d="M118.771 200.999H27.406c-7.611 0-14.084 2.664-19.414 7.994C2.663 214.32 0 220.791 0 228.407v54.823c0 7.61 2.663 14.078 7.992 19.406 5.33 5.329 11.803 7.994 19.414 7.994h91.365c7.611 0 14.084-2.665 19.414-7.994 5.33-5.328 7.992-11.796 7.992-19.406v-54.823c0-7.616-2.662-14.087-7.992-19.414s-11.803-7.994-19.414-7.994zM118.771 54.814H27.406c-7.611 0-14.084 2.663-19.414 7.993C2.663 68.137 0 74.61 0 82.221v54.821c0 7.616 2.663 14.091 7.992 19.417 5.33 5.327 11.803 7.994 19.414 7.994h91.365c7.611 0 14.084-2.667 19.414-7.994s7.992-11.798 7.992-19.414v-54.82c0-7.611-2.662-14.084-7.992-19.417-5.33-5.328-11.803-7.994-19.414-7.994zM118.771 347.177H27.406c-7.611 0-14.084 2.662-19.414 7.994C2.663 360.502 0 366.974 0 374.585v54.826c0 7.61 2.663 14.086 7.992 19.41 5.33 5.332 11.803 7.991 19.414 7.991h91.365c7.611 0 14.084-2.663 19.414-7.991 5.33-5.324 7.992-11.8 7.992-19.41v-54.826c0-7.611-2.662-14.083-7.992-19.411s-11.803-7.997-19.414-7.997zM484.215 200.999H210.131c-7.614 0-14.084 2.664-19.414 7.994s-7.992 11.798-7.992 19.414v54.823c0 7.61 2.662 14.078 7.992 19.406 5.327 5.329 11.8 7.994 19.414 7.994h274.091c7.61 0 14.085-2.665 19.41-7.994 5.332-5.328 7.994-11.796 7.994-19.406v-54.823c0-7.616-2.662-14.087-7.997-19.414-5.329-5.33-11.796-7.994-19.414-7.994zM484.215 347.177H210.131c-7.614 0-14.084 2.662-19.414 7.994-5.33 5.331-7.992 11.8-7.992 19.41v54.823c0 7.611 2.662 14.089 7.992 19.417 5.327 5.328 11.8 7.987 19.414 7.987h274.091c7.61 0 14.085-2.662 19.41-7.987 5.332-5.331 7.994-11.806 7.994-19.417v-54.823c0-7.61-2.662-14.085-7.997-19.41-5.329-5.325-11.796-7.994-19.414-7.994zM503.629 62.811c-5.329-5.327-11.797-7.993-19.414-7.993H210.131c-7.614 0-14.084 2.663-19.414 7.993s-7.992 11.803-7.992 19.414v54.821c0 7.616 2.662 14.083 7.992 19.414 5.327 5.327 11.8 7.994 19.414 7.994h274.091c7.61 0 14.078-2.667 19.41-7.994s7.994-11.798 7.994-19.414V82.225c0-7.612-2.662-14.084-7.997-19.414z"/></symbol><symbol viewBox="0 0 511.626 511.626" id="display-type-2" xmlns="http://www.w3.org/2000/svg"><path d="M63.953 164.453H9.135c-2.474 0-4.615.9-6.423 2.709C.903 168.972 0 171.114 0 173.589v54.817c0 2.473.903 4.619 2.712 6.424 1.809 1.803 3.949 2.712 6.423 2.712h54.818c2.474 0 4.615-.905 6.423-2.712 1.809-1.809 2.712-3.951 2.712-6.424v-54.817c0-2.475-.904-4.617-2.712-6.427-1.808-1.806-3.949-2.709-6.423-2.709zM63.953 383.722H9.135c-2.474 0-4.615.896-6.423 2.707C.903 388.238 0 390.378 0 392.854v54.82c0 2.471.903 4.609 2.712 6.42 1.809 1.813 3.949 2.714 6.423 2.714h54.818c2.474 0 4.615-.903 6.423-2.714 1.809-1.807 2.712-3.949 2.712-6.42v-54.82c0-2.477-.904-4.616-2.712-6.426-1.808-1.803-3.949-2.706-6.423-2.706zM63.953 274.082H9.135c-2.474 0-4.615.91-6.423 2.714S0 280.749 0 283.22v54.815c0 2.478.903 4.62 2.712 6.427 1.809 1.808 3.949 2.707 6.423 2.707h54.818c2.474 0 4.615-.896 6.423-2.707 1.809-1.807 2.712-3.949 2.712-6.427V283.22c0-2.471-.904-4.613-2.712-6.424-1.808-1.807-3.949-2.714-6.423-2.714zM63.953 54.817H9.135c-2.474 0-4.615.903-6.423 2.712S0 61.479 0 63.953v54.817c0 2.475.903 4.615 2.712 6.424s3.949 2.712 6.423 2.712h54.818c2.474 0 4.615-.9 6.423-2.712 1.809-1.809 2.712-3.949 2.712-6.424V63.953c0-2.475-.904-4.615-2.712-6.424-1.808-1.804-3.949-2.712-6.423-2.712zM502.49 383.722H118.771c-2.474 0-4.615.896-6.423 2.707-1.809 1.81-2.712 3.949-2.712 6.426v54.82c0 2.471.903 4.609 2.712 6.42 1.809 1.813 3.946 2.714 6.423 2.714H502.49c2.478 0 4.616-.903 6.427-2.714 1.81-1.811 2.71-3.949 2.71-6.42v-54.82c0-2.477-.903-4.616-2.71-6.426-1.811-1.804-3.95-2.707-6.427-2.707zM502.49 274.082H118.771c-2.474 0-4.615.91-6.423 2.714s-2.712 3.953-2.712 6.424v54.815c0 2.478.903 4.62 2.712 6.427 1.809 1.808 3.946 2.707 6.423 2.707H502.49c2.478 0 4.616-.896 6.427-2.707 1.81-1.807 2.71-3.949 2.71-6.427V283.22c0-2.471-.903-4.613-2.71-6.424-1.811-1.804-3.95-2.714-6.427-2.714zM508.917 57.529c-1.811-1.805-3.949-2.712-6.427-2.712H118.771c-2.474 0-4.615.903-6.423 2.712s-2.712 3.949-2.712 6.424v54.817c0 2.475.903 4.615 2.712 6.424s3.946 2.712 6.423 2.712H502.49c2.478 0 4.616-.9 6.427-2.712 1.81-1.809 2.71-3.949 2.71-6.424V63.953c-.001-2.474-.904-4.615-2.71-6.424zM502.49 164.453H118.771c-2.474 0-4.615.9-6.423 2.709-1.809 1.81-2.712 3.952-2.712 6.427v54.817c0 2.473.903 4.615 2.712 6.424 1.809 1.803 3.946 2.712 6.423 2.712H502.49c2.478 0 4.616-.905 6.427-2.712 1.81-1.809 2.71-3.951 2.71-6.424v-54.817c0-2.475-.903-4.617-2.71-6.427-1.811-1.806-3.95-2.709-6.427-2.709z"/></symbol><symbol viewBox="0 0 432.544 432.544" id="edit" xmlns="http://www.w3.org/2000/svg"><path d="M0 313.775v118.77h118.771l237.541-237.541L237.539 76.232 0 313.775zm103.638 82.224l-30.55.004v-36.546H36.545v-30.553l25.981-25.981 67.093 67.092-25.981 25.984zM246.683 124.77c4.182 0 6.276 2.095 6.276 6.28 0 1.906-.664 3.521-1.999 4.856L96.214 290.651c-1.333 1.328-2.952 1.995-4.854 1.995-4.184 0-6.279-2.098-6.279-6.279 0-1.906.666-3.521 1.997-4.856l154.747-154.743c1.329-1.332 2.948-1.998 4.858-1.998zM421.976 77.654l-67.091-66.806C347.653 3.619 338.992 0 328.903 0c-10.283 0-18.842 3.619-25.693 10.848l-47.394 47.109 118.773 118.77 47.394-47.392c7.042-7.043 10.561-15.608 10.561-25.697-.004-9.895-3.522-18.558-10.568-25.984z"/></symbol><symbol viewBox="0 0 401.991 401.991" id="minus" xmlns="http://www.w3.org/2000/svg"><path d="M394 154.174c-5.331-5.33-11.806-7.995-19.417-7.995H27.406c-7.611 0-14.084 2.665-19.414 7.995C2.662 159.503 0 165.972 0 173.587v54.82c0 7.617 2.662 14.086 7.992 19.41 5.33 5.332 11.803 7.994 19.414 7.994h347.176c7.611 0 14.086-2.662 19.417-7.994 5.325-5.324 7.991-11.793 7.991-19.41v-54.82c.001-7.615-2.658-14.087-7.99-19.413z"/></symbol><symbol viewBox="0 0 511.626 511.626" id="move" xmlns="http://www.w3.org/2000/svg"><path d="M506.199 242.968l-73.09-73.089c-3.614-3.617-7.898-5.424-12.848-5.424-4.948 0-9.229 1.807-12.847 5.424-3.613 3.619-5.424 7.902-5.424 12.85v36.547H292.355V109.641h36.549c4.948 0 9.232-1.809 12.847-5.424 3.614-3.617 5.421-7.896 5.421-12.847 0-4.952-1.807-9.235-5.421-12.851L268.66 5.429c-3.613-3.616-7.895-5.424-12.847-5.424s-9.232 1.809-12.85 5.424l-73.088 73.09c-3.618 3.619-5.424 7.902-5.424 12.851 0 4.946 1.807 9.229 5.424 12.847 3.619 3.615 7.898 5.424 12.85 5.424h36.545v109.636H109.636V182.73c0-4.952-1.809-9.234-5.426-12.85-3.619-3.617-7.902-5.424-12.85-5.424-4.947 0-9.23 1.807-12.847 5.424L5.424 242.968C1.809 246.585 0 250.866 0 255.815s1.809 9.233 5.424 12.847l73.089 73.087c3.617 3.613 7.897 5.431 12.847 5.431 4.952 0 9.234-1.817 12.85-5.431 3.617-3.61 5.426-7.898 5.426-12.847v-36.549H219.27v109.636h-36.542c-4.952 0-9.235 1.811-12.851 5.424-3.617 3.617-5.424 7.898-5.424 12.847s1.807 9.233 5.424 12.854l73.089 73.084c3.621 3.614 7.902 5.424 12.851 5.424 4.948 0 9.236-1.81 12.847-5.424l73.087-73.084c3.621-3.62 5.428-7.905 5.428-12.854s-1.807-9.229-5.428-12.847c-3.614-3.613-7.898-5.424-12.847-5.424h-36.542V292.356h109.633v36.553c0 4.948 1.807 9.232 5.42 12.847 3.621 3.613 7.905 5.428 12.854 5.428 4.944 0 9.226-1.814 12.847-5.428l73.087-73.091c3.617-3.617 5.424-7.901 5.424-12.85s-1.807-9.23-5.428-12.847z"/></symbol><symbol viewBox="0 0 401.994 401.994" id="plus" xmlns="http://www.w3.org/2000/svg"><path d="M394 154.175c-5.331-5.33-11.806-7.994-19.417-7.994H255.811V27.406c0-7.611-2.666-14.084-7.994-19.414C242.488 2.666 236.02 0 228.398 0h-54.812c-7.612 0-14.084 2.663-19.414 7.993-5.33 5.33-7.994 11.803-7.994 19.414v118.775H27.407c-7.611 0-14.084 2.664-19.414 7.994S0 165.973 0 173.589v54.819c0 7.618 2.662 14.086 7.992 19.411 5.33 5.332 11.803 7.994 19.414 7.994h118.771V374.59c0 7.611 2.664 14.089 7.994 19.417 5.33 5.325 11.802 7.987 19.414 7.987h54.816c7.617 0 14.086-2.662 19.417-7.987 5.332-5.331 7.994-11.806 7.994-19.417V255.813h118.77c7.618 0 14.089-2.662 19.417-7.994 5.329-5.325 7.994-11.793 7.994-19.411v-54.819c-.002-7.616-2.661-14.087-7.993-19.414z"/></symbol><symbol viewBox="0 0 438.529 438.529" id="remove" xmlns="http://www.w3.org/2000/svg"><path d="M417.689 75.654c-1.711-1.709-3.901-2.568-6.563-2.568h-88.224L302.917 25.41c-2.854-7.044-7.994-13.04-15.413-17.989C280.078 2.473 272.556 0 264.945 0h-91.363c-7.611 0-15.131 2.473-22.554 7.421-7.424 4.949-12.563 10.944-15.419 17.989l-19.985 47.676h-88.22c-2.667 0-4.853.859-6.567 2.568-1.709 1.713-2.568 3.903-2.568 6.567v18.274c0 2.664.855 4.854 2.568 6.564 1.714 1.712 3.904 2.568 6.567 2.568H54.81v271.8c0 15.803 4.473 29.266 13.418 40.398 8.947 11.139 19.701 16.703 32.264 16.703h237.542c12.566 0 23.319-5.756 32.265-17.268 8.945-11.52 13.415-25.174 13.415-40.971V109.627h27.411c2.662 0 4.853-.856 6.563-2.568 1.708-1.709 2.57-3.9 2.57-6.564V82.221c.002-2.664-.861-4.854-2.569-6.567zM169.301 39.678c1.331-1.712 2.95-2.762 4.853-3.14h90.504c1.903.381 3.525 1.43 4.854 3.14l13.709 33.404h-127.91l13.99-33.404zm177.872 340.613c0 4.186-.664 8.042-1.999 11.561-1.334 3.518-2.717 6.088-4.141 7.706-1.431 1.622-2.423 2.427-2.998 2.427H100.493c-.571 0-1.565-.805-2.996-2.427-1.429-1.618-2.81-4.188-4.143-7.706-1.331-3.519-1.997-7.379-1.997-11.561V109.627h255.815v270.664z"/><path d="M137.04 347.172h18.271c2.667 0 4.858-.855 6.567-2.567 1.709-1.718 2.568-3.901 2.568-6.57V173.581c0-2.663-.859-4.853-2.568-6.567-1.714-1.709-3.899-2.565-6.567-2.565H137.04c-2.667 0-4.854.855-6.567 2.565-1.711 1.714-2.568 3.904-2.568 6.567v164.454c0 2.669.854 4.853 2.568 6.57 1.713 1.711 3.9 2.567 6.567 2.567zM210.129 347.172H228.4c2.666 0 4.856-.855 6.564-2.567 1.718-1.718 2.569-3.901 2.569-6.57V173.581c0-2.663-.852-4.853-2.569-6.567-1.708-1.709-3.898-2.565-6.564-2.565h-18.271c-2.664 0-4.854.855-6.567 2.565-1.714 1.714-2.568 3.904-2.568 6.567v164.454c0 2.669.854 4.853 2.568 6.57 1.712 1.711 3.903 2.567 6.567 2.567zM283.22 347.172h18.268c2.669 0 4.859-.855 6.57-2.567 1.711-1.718 2.562-3.901 2.562-6.57V173.581c0-2.663-.852-4.853-2.562-6.567-1.711-1.709-3.901-2.565-6.57-2.565H283.22c-2.67 0-4.853.855-6.571 2.565-1.711 1.714-2.566 3.904-2.566 6.567v164.454c0 2.669.855 4.853 2.566 6.57 1.718 1.711 3.901 2.567 6.571 2.567z"/></symbol><symbol viewBox="0 0 438.533 438.533" id="save" xmlns="http://www.w3.org/2000/svg"><path d="M432.823 121.049c-3.806-9.132-8.377-16.367-13.709-21.695l-79.941-79.942c-5.325-5.325-12.56-9.895-21.696-13.704C308.346 1.903 299.969 0 292.357 0H27.409C19.798 0 13.325 2.663 7.995 7.993 2.665 13.32.003 19.792.003 27.407v383.719c0 7.617 2.662 14.089 7.992 19.417 5.33 5.325 11.803 7.991 19.414 7.991h383.718c7.618 0 14.089-2.666 19.417-7.991 5.325-5.328 7.987-11.8 7.987-19.417V146.178c0-7.616-1.902-15.99-5.708-25.129zM182.725 45.677c0-2.474.905-4.611 2.714-6.423 1.807-1.804 3.949-2.708 6.423-2.708h54.819c2.468 0 4.609.902 6.417 2.708 1.813 1.812 2.717 3.949 2.717 6.423v91.362c0 2.478-.91 4.618-2.717 6.427-1.808 1.803-3.949 2.708-6.417 2.708h-54.819c-2.474 0-4.617-.902-6.423-2.708-1.809-1.812-2.714-3.949-2.714-6.427V45.677zm146.181 356.314H109.633V292.355h219.273v109.636zm73.094 0h-36.559V283.218c0-7.617-2.663-14.085-7.991-19.417-5.328-5.328-11.8-7.994-19.41-7.994H100.498c-7.614 0-14.087 2.666-19.417 7.994-5.327 5.328-7.992 11.8-7.992 19.417v118.773H36.544V36.542h36.544v118.771c0 7.615 2.662 14.084 7.992 19.414 5.33 5.327 11.803 7.993 19.417 7.993h164.456c7.61 0 14.089-2.666 19.41-7.993 5.325-5.327 7.994-11.799 7.994-19.414V36.542c2.854 0 6.563.95 11.136 2.853 4.572 1.902 7.806 3.805 9.709 5.708l80.232 80.23c1.902 1.903 3.806 5.19 5.708 9.851 1.909 4.665 2.857 8.33 2.857 10.994v255.813z"/></symbol><symbol viewBox="0 0 512 512" id="warn" xmlns="http://www.w3.org/2000/svg"><path d="M507.494 426.066L282.864 53.537a31.372 31.372 0 0 0-53.73 0L4.506 426.066a31.37 31.37 0 0 0 26.864 47.569h449.259a31.372 31.372 0 0 0 26.865-47.569zM256.167 167.227c12.901 0 23.817 7.278 23.817 20.178 0 39.363-4.631 95.929-4.631 135.292 0 10.255-11.247 14.554-19.186 14.554-10.584 0-19.516-4.3-19.516-14.554 0-39.363-4.63-95.929-4.63-135.292 0-12.9 10.584-20.178 24.146-20.178zm.331 243.791c-14.554 0-25.471-11.908-25.471-25.47 0-13.893 10.916-25.47 25.471-25.47 13.562 0 25.14 11.577 25.14 25.47 0 13.562-11.578 25.47-25.14 25.47z"/></symbol></svg>